D:\school\WTK\thesis\model\3dpredictsim\Results\debug_batch\Pog_s1_tmt_aCst_d00_k500_ig24_act_TTC_GRF.mot
nRows=20
nColumns=19

name D:\school\WTK\thesis\model\3dpredictsim\Results\debug_batch\Pog_s1_tmt_aCst_d00_k500_ig24_act_TTC_GRF.mot
datacolumns 19
datarows 20
range 0.6894085046 0.9513837364
endheader
time 	ground_force_vx	ground_force_vy	ground_force_vz	ground_force_px	ground_force_py	ground_force_pz	1_ground_force_vx	1_ground_force_vy	1_ground_force_vz	1_ground_force_px	1_ground_force_py	1_ground_force_pz	ground_torque_x	ground_torque_y	ground_torque_z	1_ground_torque_x	1_ground_torque_y	1_ground_torque_z
        0.6894085046	       48.9699970707	      244.7615574383	        8.2554409257	        0.4581483315	        0.0000000000	        0.0267987372	     -102.9808012828	      102.8241105118	      -25.1709890779	        1.0805474335	        0.0000000000	       -0.0497187463	        0.0000000000	        0.0000000000	        0.0000000000	        0.0000000000	        0.0000000000	        0.0000000000	
        0.7031966747	       31.2118961580	      200.1913621417	       15.0797133816	        0.4605781647	        0.0000000000	        0.0259177735	      -69.1614606295	      368.7689530275	       -1.6955659049	        1.0857891401	        0.0000000000	       -0.0483269871	        0.0000000000	        0.0000000000	        0.0000000000	        0.0000000000	        0.0000000000	        0.0000000000	
        0.7169848448	       26.2625171627	      149.1355944435	       14.8543375399	        0.4609562437	        0.0000000000	        0.0259650110	      -93.5313930379	      641.6481083399	       12.7752900733	        1.0883884353	        0.0000000000	       -0.0482677402	        0.0000000000	        0.0000000000	        0.0000000000	        0.0000000000	        0.0000000000	        0.0000000000	
        0.7307730149	        5.7161385063	       76.6716160485	       18.0067983331	        0.4603464920	        0.0000000000	        0.0269513122	     -157.2339196298	      865.7570785931	       17.8970136471	        1.0974365308	        0.0000000000	       -0.0503054544	        0.0000000000	        0.0000000000	        0.0000000000	        0.0000000000	        0.0000000000	        0.0000000000	
        0.7445611850	      -14.2355148549	       17.1482225292	        5.9712923230	        0.4547415717	        0.0000000000	        0.0268101989	     -184.8163799975	      971.8287057619	       23.5472199872	        1.1064525360	        0.0000000000	       -0.0522838079	        0.0000000000	        0.0000000000	        0.0000000000	        0.0000000000	        0.0000000000	        0.0000000000	
        0.7583493551	      -18.7325357024	       15.0943810845	       -0.5145232184	        0.4637710677	        0.0000000000	        0.0239398100	     -175.3500694301	      940.7465590524	       19.7321309267	        1.1121092113	        0.0000000000	       -0.0533898577	        0.0000000000	        0.0000000000	        0.0000000000	        0.0000000000	        0.0000000000	        0.0000000000	
        0.7721375252	      -24.2516109638	       16.8048700241	       -0.6167052727	        0.4816481484	        0.0000000000	        0.0249135319	     -150.5135054909	      864.7612718530	       19.0062175938	        1.1161837816	        0.0000000000	       -0.0539410267	        0.0000000000	        0.0000000000	        0.0000000000	        0.0000000000	        0.0000000000	        0.0000000000	
        0.7859256953	      -26.3564036916	       16.1658664479	       -1.3802981353	        0.5048009779	        0.0000000000	        0.0260828295	     -129.8152332919	      794.8060545233	       18.4294752872	        1.1201188666	        0.0000000000	       -0.0541688850	        0.0000000000	        0.0000000000	        0.0000000000	        0.0000000000	        0.0000000000	        0.0000000000	
        0.7997138654	      -24.1049756789	       13.4965466334	       -1.5542576122	        0.5319788595	        0.0000000000	        0.0278329563	     -113.6774876309	      748.6847072310	       17.7426508036	        1.1241918199	        0.0000000000	       -0.0541596583	        0.0000000000	        0.0000000000	        0.0000000000	        0.0000000000	        0.0000000000	        0.0000000000	
        0.8135020355	      -20.5196334590	       10.7669806256	       -1.4823545486	        0.5620355092	        0.0000000000	        0.0298950843	     -101.5333210613	      716.7730970350	       18.0114833078	        1.1288869736	        0.0000000000	       -0.0539591337	        0.0000000000	        0.0000000000	        0.0000000000	        0.0000000000	        0.0000000000	        0.0000000000	
        0.8272902056	      -16.4330442242	        8.2631793402	       -1.2574459309	        0.0000000000	        0.0000000000	        0.0000000000	      -91.0685972873	      692.9771237637	       18.9150622108	        1.1341527801	        0.0000000000	       -0.0535559343	        0.0000000000	        0.0000000000	        0.0000000000	        0.0000000000	        0.0000000000	        0.0000000000	
        0.8410783757	      -12.2623199813	        6.0157768866	       -0.8933233127	        0.0000000000	        0.0000000000	        0.0000000000	      -80.0813933888	      670.2387542460	       19.4614506587	        1.1392784045	        0.0000000000	       -0.0532475026	        0.0000000000	        0.0000000000	        0.0000000000	        0.0000000000	        0.0000000000	        0.0000000000	
        0.8548665457	       -8.7553719466	        4.2088840964	       -0.6152739359	        0.0000000000	        0.0000000000	        0.0000000000	      -69.2128182667	      647.6706162326	       19.9370070287	        1.1440570228	        0.0000000000	       -0.0530755251	        0.0000000000	        0.0000000000	        0.0000000000	        0.0000000000	        0.0000000000	        0.0000000000	
        0.8686547158	       -6.2363272364	        2.9513765823	       -0.4211324821	        0.0000000000	        0.0000000000	        0.0000000000	      -59.1770094606	      627.3376146812	       20.2234785806	        1.1487082433	        0.0000000000	       -0.0530000967	        0.0000000000	        0.0000000000	        0.0000000000	        0.0000000000	        0.0000000000	        0.0000000000	
        0.8824428859	       -4.4724678537	        2.0863013636	       -0.2899039916	        0.0000000000	        0.0000000000	        0.0000000000	      -50.3868516812	      610.0533324847	       20.2261191175	        1.1534454848	        0.0000000000	       -0.0529692839	        0.0000000000	        0.0000000000	        0.0000000000	        0.0000000000	        0.0000000000	        0.0000000000	
        0.8962310560	       -3.1253329377	        1.4373655338	       -0.1962320528	        0.0000000000	        0.0000000000	        0.0000000000	      -43.9607933510	      596.9926388336	       19.9973227446	        1.1582627745	        0.0000000000	       -0.0529443841	        0.0000000000	        0.0000000000	        0.0000000000	        0.0000000000	        0.0000000000	        0.0000000000	
        0.9100192261	       -2.1446181861	        0.9714820289	       -0.1313964686	        0.0000000000	        0.0000000000	        0.0000000000	      -38.1480768434	      587.6191516861	       19.4690285940	        1.1630338935	        0.0000000000	       -0.0529229569	        0.0000000000	        0.0000000000	        0.0000000000	        0.0000000000	        0.0000000000	        0.0000000000	
        0.9238073962	       -1.5462239404	        0.6886779982	       -0.0918875894	        0.0000000000	        0.0000000000	        0.0000000000	      -32.0338966178	      580.6307129695	       18.7918968651	        1.1681029086	        0.0000000000	       -0.0528539408	        0.0000000000	        0.0000000000	        0.0000000000	        0.0000000000	        0.0000000000	        0.0000000000	
        0.9375955663	       -1.2178532468	        0.5328465799	       -0.0691627912	        0.0000000000	        0.0000000000	        0.0000000000	      -26.8801800802	      575.5530497670	       18.3232646517	        1.1735630723	        0.0000000000	       -0.0526927304	        0.0000000000	        0.0000000000	        0.0000000000	        0.0000000000	        0.0000000000	        0.0000000000	
        0.9513837364	       -1.0581973418	        0.4548738704	       -0.0571395526	        0.0000000000	        0.0000000000	        0.0000000000	      -22.4932032998	      572.0951647798	       18.3626805435	        1.1791976416	        0.0000000000	       -0.0524542664	        0.0000000000	        0.0000000000	        0.0000000000	        0.0000000000	        0.0000000000	        0.0000000000	
